<svg width="22" height="18" viewBox="0 0 22 18" fill="none" xmlns="http://www.w3.org/2000/svg">
<path d="M19.2227 3.84066H16.1402C15.9863 3.84035 15.8362 3.79274 15.7102 3.70427C15.5842 3.6158 15.4885 3.49075 15.436 3.34605L15.0665 2.32647C14.9084 1.89259 14.6209 1.51771 14.2429 1.25253C13.8648 0.987343 13.4145 0.844653 12.9527 0.84375H9.00972C8.54799 0.844652 8.09767 0.9873 7.71964 1.25241C7.3416 1.51752 7.05408 1.89231 6.89593 2.32611L6.52644 3.34642C6.47383 3.49103 6.37808 3.61599 6.25212 3.70439C6.12616 3.79278 5.97609 3.84036 5.82221 3.84066H2.73969C2.14377 3.84132 1.57244 4.07833 1.15105 4.49972C0.729673 4.9211 0.492655 5.49243 0.492004 6.08835V15.0791C0.492655 15.675 0.729673 16.2463 1.15105 16.6677C1.57244 17.0891 2.14377 17.3261 2.73969 17.3268H19.2227C19.8186 17.3261 20.39 17.0891 20.8114 16.6677C21.2327 16.2463 21.4698 15.675 21.4704 15.0791V6.08835C21.4698 5.49243 21.2327 4.9211 20.8114 4.49972C20.39 4.07833 19.8186 3.84132 19.2227 3.84066ZM19.972 15.0791C19.9717 15.2777 19.8927 15.4681 19.7522 15.6086C19.6118 15.749 19.4214 15.8281 19.2227 15.8283H2.73969C2.54106 15.8281 2.35064 15.749 2.21019 15.6086C2.06974 15.4681 1.99072 15.2777 1.99046 15.0791V6.08835C1.99072 5.88972 2.06974 5.6993 2.21019 5.55885C2.35064 5.4184 2.54106 5.33938 2.73969 5.33912H5.82221C6.28388 5.33816 6.73413 5.19549 7.1121 4.93038C7.49007 4.66527 7.77753 4.29051 7.93564 3.85676L8.30513 2.83645C8.35777 2.69179 8.45359 2.56681 8.57962 2.4784C8.70564 2.39 8.85579 2.34246 9.00972 2.34221H12.9527C13.1067 2.34246 13.2569 2.39005 13.3829 2.47852C13.5089 2.567 13.6047 2.69208 13.6573 2.83682L14.0268 3.8564C14.1848 4.29024 14.4722 4.66508 14.8502 4.93026C15.2282 5.19544 15.6785 5.33816 16.1402 5.33912H19.2227C19.4214 5.33938 19.6118 5.4184 19.7522 5.55885C19.8927 5.6993 19.9717 5.88972 19.972 6.08835V15.0791Z" fill="white"/>
<path d="M19.2226 6.83712C19.2226 6.9853 19.1787 7.13016 19.0964 7.25337C19.014 7.37658 18.897 7.47261 18.7601 7.52932C18.6232 7.58602 18.4726 7.60086 18.3272 7.57195C18.1819 7.54304 18.0484 7.47169 17.9436 7.3669C17.8388 7.26212 17.7675 7.12862 17.7386 6.98329C17.7097 6.83795 17.7245 6.68731 17.7812 6.5504C17.8379 6.4135 17.934 6.29648 18.0572 6.21416C18.1804 6.13183 18.3252 6.08789 18.4734 6.08789C18.6721 6.08789 18.8627 6.16683 19.0032 6.30733C19.1437 6.44784 19.2226 6.63841 19.2226 6.83712Z" fill="white"/>
<path d="M5.73654 6.83712C5.73654 7.03583 5.6576 7.2264 5.51709 7.3669C5.37659 7.50741 5.18602 7.58635 4.98731 7.58635H3.48885C3.29014 7.58635 3.09958 7.50741 2.95907 7.3669C2.81856 7.2264 2.73962 7.03583 2.73962 6.83712C2.73962 6.63841 2.81856 6.44784 2.95907 6.30733C3.09958 6.16683 3.29014 6.08789 3.48885 6.08789H4.98731C5.18602 6.08789 5.37659 6.16683 5.51709 6.30733C5.6576 6.44784 5.73654 6.63841 5.73654 6.83712Z" fill="white"/>
<path d="M10.9812 6.08789C10.0921 6.08789 9.22292 6.35154 8.48366 6.8455C7.7444 7.33946 7.16821 8.04154 6.82797 8.86296C6.48773 9.68438 6.3987 10.5882 6.57216 11.4603C6.74561 12.3323 7.17376 13.1333 7.80244 13.762C8.43113 14.3907 9.23213 14.8188 10.1041 14.9923C10.9762 15.1657 11.88 15.0767 12.7015 14.7364C13.5229 14.3962 14.225 13.82 14.7189 13.0808C15.2129 12.3415 15.4765 11.4724 15.4765 10.5833C15.4752 9.39142 15.0012 8.24876 14.1584 7.40599C13.3157 6.56323 12.173 6.08919 10.9812 6.08789ZM10.9812 13.5802C10.3884 13.5802 9.809 13.4044 9.31616 13.0751C8.82332 12.7458 8.43919 12.2777 8.21236 11.7301C7.98553 11.1825 7.92619 10.5799 8.04182 9.99859C8.15746 9.41725 8.44289 8.88325 8.86201 8.46412C9.28114 8.045 9.81514 7.75957 10.3965 7.64393C10.9778 7.5283 11.5804 7.58765 12.128 7.81447C12.6756 8.0413 13.1437 8.42543 13.473 8.91827C13.8023 9.41111 13.9781 9.99053 13.9781 10.5833C13.9772 11.3778 13.6611 12.1396 13.0993 12.7014C12.5375 13.2632 11.7757 13.5793 10.9812 13.5802Z" fill="white"/>
</svg>
