<svg width="35" height="17" viewBox="0 0 35 17" fill="none" xmlns="http://www.w3.org/2000/svg">
<path d="M9.40318 6.64765C9.29159 5.66212 6.67147 5.54608 6.67147 5.54608C2.49028 5.34325 1.12428 3.43005 1.12428 3.43005C1.73758 6.21275 4.77594 6.64735 4.77594 6.64735C5.63994 6.76368 9.40318 6.64765 9.40318 6.64765Z" fill="#C7B277"/>
<path d="M7.14536 8.41588C8.45542 7.69135 9.73766 7.74922 9.73766 7.74922C9.43101 6.93759 7.22883 7.37249 7.22883 7.37249C3.9531 7.96712 2.79665 6.69949 2.79665 6.69949C2.89809 7.61902 4.10671 8.30015 4.10671 8.30015C5.5156 9.09973 7.14536 8.41588 7.14536 8.41588Z" fill="#C7B277"/>
<path d="M8.12094 10.242C9.37535 8.93759 10.4066 9.14043 10.4066 9.14043C9.87706 8.18383 8.26035 9.14043 8.26035 9.14043C5.78022 10.2812 4.30205 9.14043 4.30205 9.14043C5.83499 11.865 8.12094 10.242 8.12094 10.242Z" fill="#C7B277"/>
<path d="M9.40316 11.6042C9.73763 10.8797 11.1315 10.7218 11.1315 10.7218C10.7692 9.75222 9.15245 10.7218 9.15245 10.7218C7.56356 11.9843 5.8912 11.1115 5.8912 11.1115C7.95368 13.2272 9.40316 11.6042 9.40316 11.6042Z" fill="#C7B277"/>
<path d="M8.51108 13.1694C8.05864 14.292 9.40319 13.6911 9.40319 13.6911C10.2672 12.5606 11.7448 12.0389 11.7448 12.0389C9.34407 11.2836 8.51108 13.1694 8.51108 13.1694Z" fill="#C7B277"/>
<path d="M10.1063 13.924C9.33157 14.9376 10.6016 14.6477 10.6016 14.6477C10.8805 13.9231 12.6088 13.2272 12.6088 13.2272C11.2784 12.5762 10.1063 13.924 10.1063 13.924Z" fill="#C7B277"/>
<path d="M11.7445 14.6941C10.8271 15.9692 12.1346 15.2854 12.1346 15.2854C12.4273 15.1724 13.7235 13.924 13.7235 13.924C12.3844 13.868 11.7445 14.6941 11.7445 14.6941Z" fill="#C7B277"/>
<path d="M12.5644 15.952C12.6876 16.5316 14.2533 14.9376 14.2533 14.9376C12.3789 15.0129 12.5644 15.952 12.5644 15.952Z" fill="#C7B277"/>
<path d="M13.4081 16.3402C13.089 17.2158 15.006 15.6913 15.006 15.6913C13.8243 15.3972 13.4081 16.3402 13.4081 16.3402Z" fill="#C7B277"/>
<path d="M14.4484 16.644C14.3742 17.1579 15.5912 16.3402 15.5912 16.3402C14.6028 16.0789 14.4484 16.644 14.4484 16.644Z" fill="#C7B277"/>
<path d="M19.7353 13.72C19.7353 13.72 19.6492 13.3312 20.1813 12.9855C20.1813 12.9855 23.0803 11.0144 23.8608 7.2658C23.8608 7.2658 24.0095 5.49456 25.2358 5.29474C25.2358 5.29474 34.2671 5.52681 34.4158 0C34.4158 0 34.0071 3.82609 26.2021 3.86467C26.2021 3.86467 23.8605 3.78721 22.9687 4.79233C22.9687 4.79233 22.2354 5.49456 22.2253 7.42041C22.2253 7.42041 22.1508 9.93246 19.6979 11.7875C19.6979 11.7875 19.1269 12.2031 18.9918 12.7923L17.2079 9.93337L15.424 12.7923C15.2889 12.2031 14.7179 11.7875 14.7179 11.7875C12.265 9.93246 12.1905 7.42041 12.1905 7.42041C12.1804 5.49456 11.4471 4.79233 11.4471 4.79233C10.555 3.78751 8.21368 3.86467 8.21368 3.86467C0.40867 3.82639 0 0.000301386 0 0.000301386C0.148686 5.52681 9.18 5.29504 9.18 5.29504C10.4066 5.49486 10.555 7.26611 10.555 7.26611C11.3355 11.0147 14.2345 12.9858 14.2345 12.9858C14.7666 13.3312 14.6805 13.7203 14.6805 13.7203C14.5626 16.223 16.9459 16.3077 17.2079 16.3285C17.4699 16.3077 19.8532 16.223 19.7353 13.72Z" fill="#C7B277"/>
<path d="M27.7446 5.54612C27.7446 5.54612 25.1245 5.66215 25.0129 6.64768C25.0129 6.64768 28.7761 6.76371 29.6402 6.64768C29.6402 6.64768 32.6785 6.21278 33.2918 3.43039C33.2918 3.43039 31.9261 5.34328 27.7446 5.54612Z" fill="#C7B277"/>
<path d="M27.1873 7.37218C27.1873 7.37218 24.9851 6.93728 24.6785 7.74891C24.6785 7.74891 25.9607 7.69104 27.2708 8.41558C27.2708 8.41558 28.9002 9.09942 30.3091 8.29954C30.3091 8.29954 31.5177 7.61871 31.6192 6.69888C31.6195 6.69918 30.463 7.96681 27.1873 7.37218Z" fill="#C7B277"/>
<path d="M26.156 9.14043C26.156 9.14043 24.5393 8.18383 24.0098 9.14043C24.0098 9.14043 25.041 8.93759 26.2954 10.242C26.2954 10.242 28.5811 11.8653 30.1143 9.14043C30.114 9.14043 28.6362 10.2809 26.156 9.14043Z" fill="#C7B277"/>
<path d="M25.2639 10.7218C25.2639 10.7218 23.6472 9.75222 23.2849 10.7218C23.2849 10.7218 24.6787 10.8797 25.0132 11.6042C25.0132 11.6042 26.4627 13.2275 28.5255 11.1115C28.5252 11.1115 26.8528 11.984 25.2639 10.7218Z" fill="#C7B277"/>
<path d="M22.6716 12.0389C22.6716 12.0389 24.1489 12.5606 25.0132 13.6911C25.0132 13.6911 26.3577 14.2917 25.9053 13.1694C25.905 13.1694 25.072 11.2836 22.6716 12.0389Z" fill="#C7B277"/>
<path d="M21.8073 13.2272C21.8073 13.2272 23.5356 13.9228 23.8144 14.6477C23.8144 14.6477 25.0845 14.9376 24.3098 13.924C24.3098 13.924 23.138 12.5762 21.8073 13.2272Z" fill="#C7B277"/>
<path d="M20.6923 13.924C20.6923 13.924 21.9882 15.1724 22.2812 15.2854C22.2812 15.2854 23.5889 15.9692 22.6713 14.6941C22.6716 14.6941 22.0316 13.868 20.6923 13.924Z" fill="#C7B277"/>
<path d="M20.1628 14.9376C20.1628 14.9376 21.7285 16.5319 21.8517 15.952C21.8517 15.952 22.0372 15.0129 20.1628 14.9376Z" fill="#C7B277"/>
<path d="M19.4101 15.691C19.4101 15.691 21.3271 17.2157 21.008 16.3399C21.008 16.3402 20.5917 15.3972 19.4101 15.691Z" fill="#C7B277"/>
<path d="M18.8249 16.3402C18.8249 16.3402 20.0419 17.1579 19.9677 16.644C19.9677 16.644 19.8132 16.0789 18.8249 16.3402Z" fill="#C7B277"/>
</svg>
