<svg width="9" height="13" viewBox="0 0 9 13" fill="none" xmlns="http://www.w3.org/2000/svg">
<path d="M4.37341 3.31543C4.38498 3.29281 4.403 3.27374 4.4254 3.2604C4.44781 3.24706 4.4737 3.23999 4.50012 3.23999C4.52654 3.23999 4.55242 3.24706 4.57483 3.2604C4.59723 3.27374 4.61525 3.29281 4.62683 3.31543L5.12892 4.28479C5.13897 4.30439 5.15389 4.32137 5.17238 4.33425C5.19087 4.34714 5.21238 4.35553 5.23504 4.35871L6.3596 4.51411C6.47444 4.52995 6.52116 4.66498 6.43722 4.74268L5.62468 5.4978C5.60829 5.51305 5.59604 5.53187 5.589 5.55264C5.58196 5.57341 5.58035 5.59549 5.58429 5.61699L5.77594 6.68366C5.78025 6.70829 5.77725 6.73358 5.76731 6.75668C5.75736 6.77978 5.74084 6.79978 5.71962 6.81444C5.69839 6.82909 5.6733 6.83782 5.64716 6.83963C5.62101 6.84145 5.59485 6.83629 5.57162 6.82473L4.56585 6.32081C4.54569 6.31077 4.52327 6.30552 4.50051 6.30552C4.47776 6.30552 4.45534 6.31077 4.43518 6.32081L3.42941 6.82473C3.4062 6.83608 3.38013 6.84108 3.35412 6.83916C3.32811 6.83724 3.30316 6.82849 3.28206 6.81386C3.26097 6.79924 3.24454 6.77933 3.23462 6.75634C3.2247 6.73335 3.22167 6.70819 3.22588 6.68366L3.41753 5.61699C3.42157 5.59556 3.42008 5.5735 3.41318 5.55274C3.40628 5.53198 3.39418 5.51312 3.37793 5.4978L2.56223 4.74268C2.54354 4.72521 2.53034 4.70312 2.52409 4.6789C2.51784 4.65468 2.5188 4.62928 2.52686 4.60555C2.53492 4.58182 2.54976 4.56069 2.56971 4.54454C2.58967 4.52839 2.61395 4.51785 2.63984 4.51411L3.7644 4.35871C3.78706 4.35553 3.80857 4.34714 3.82706 4.33425C3.84555 4.32137 3.86047 4.30439 3.87052 4.28479L4.37341 3.31543Z" fill="#C7B277"/>
<path d="M0 1.53002C0 1.12424 0.158035 0.735069 0.43934 0.448134C0.720644 0.161199 1.10218 0 1.5 0L7.5 0C7.89782 0 8.27936 0.161199 8.56066 0.448134C8.84196 0.735069 9 1.12424 9 1.53002V11.8577C8.99996 11.9269 8.98153 11.9948 8.94666 12.0541C8.9118 12.1135 8.8618 12.1621 8.802 12.1947C8.7422 12.2274 8.67484 12.2429 8.60708 12.2396C8.53933 12.2363 8.47372 12.2143 8.41725 12.1759L4.5 10.0224L0.58275 12.1759C0.526279 12.2143 0.460673 12.2363 0.392919 12.2396C0.325164 12.2429 0.2578 12.2274 0.198 12.1947C0.138199 12.1621 0.0882031 12.1135 0.0533355 12.0541C0.018468 11.9948 3.50403e-05 11.9269 0 11.8577V1.53002ZM1.5 0.765012C1.30109 0.765012 1.11032 0.845612 0.96967 0.989079C0.829018 1.13255 0.75 1.32713 0.75 1.53002V11.1432L4.29225 9.24441C4.3538 9.20263 4.42607 9.18035 4.5 9.18035C4.57393 9.18035 4.6462 9.20263 4.70775 9.24441L8.25 11.1432V1.53002C8.25 1.32713 8.17098 1.13255 8.03033 0.989079C7.88968 0.845612 7.69891 0.765012 7.5 0.765012H1.5Z" fill="#C7B277"/>
</svg>
