<svg width="14" height="12" viewBox="0 0 14 12" fill="none" xmlns="http://www.w3.org/2000/svg">
<g clip-path="url(#clip0_1_311)">
<path d="M9.80943 4.37915C9.87418 4.32004 9.91253 4.28707 9.94836 4.25161C10.4601 3.74642 10.9712 3.23999 11.4829 2.73543C12.0348 2.19043 12.9608 2.17612 13.5147 2.70308C14.1132 3.27297 14.1722 4.18442 13.614 4.75679C12.8357 5.55501 12.033 6.33021 11.2409 7.11474C10.7964 7.55459 10.3488 7.99134 9.90938 8.43618C9.85469 8.49155 9.81446 8.58612 9.81383 8.66326C9.80629 9.36816 9.81069 10.0731 9.80943 10.7786C9.80817 11.5395 9.34297 12.0005 8.57791 12.0005C6.11046 12.0005 3.64365 12.0005 1.1762 12.0005C0.52555 12.0005 0.0528065 11.5662 0.00502919 10.9242C0.00188595 10.8775 0.000628648 10.8308 0.000628648 10.7842C0.000628648 7.5801 0.0012573 4.37666 0 1.1726C0 0.73087 0.177279 0.378734 0.565155 0.167204C0.745577 0.0695262 0.971262 0.00917783 1.17683 0.00793353C3.66502 -0.00264299 6.15321 -0.0013987 8.6414 0.00295634C9.33732 0.00420064 9.80566 0.489476 9.8088 1.19686C9.81257 2.1923 9.81006 3.18773 9.81006 4.18317C9.80943 4.2373 9.80943 4.29205 9.80943 4.37915ZM9.20404 9.09939C8.95447 9.19396 8.7225 9.30159 8.47858 9.3694C8.11145 9.47143 7.7374 9.55045 7.36399 9.62946C6.93148 9.72092 6.52537 9.32896 6.61087 8.89906C6.68253 8.53883 6.77557 8.18234 6.85478 7.82336C6.95599 7.36422 7.18419 6.97786 7.52052 6.64875C8.05299 6.12801 8.58356 5.60478 9.10911 5.07658C9.16381 5.02121 9.20781 4.92788 9.20844 4.85136C9.21473 3.63879 9.21347 2.4256 9.21221 1.21303C9.21159 0.786241 9.00665 0.588398 8.57476 0.588398C6.13435 0.588398 3.69394 0.588398 1.25352 0.588398C0.794612 0.588398 0.597845 0.784997 0.597845 1.24352C0.597845 4.41026 0.597845 7.57699 0.597845 10.7437C0.597845 11.2172 0.796498 11.4125 1.27678 11.4125C3.69645 11.4125 6.11549 11.4125 8.53516 11.4125C8.58734 11.4125 8.64014 11.415 8.69232 11.41C8.96578 11.3858 9.19461 11.1973 9.19964 10.9453C9.21284 10.3294 9.20404 9.71345 9.20404 9.09939ZM7.16659 9.04775C7.2546 9.0378 7.28981 9.03717 7.32375 9.02971C7.63996 8.95878 7.95492 8.88537 8.27113 8.81507C8.63386 8.73481 8.93875 8.55936 9.2009 8.29868C10.279 7.22672 11.3609 6.15787 12.441 5.08778C12.4768 5.05231 12.5095 5.01374 12.5246 4.99694C12.1065 4.58321 11.6979 4.17819 11.2842 3.76944C11.283 3.77007 11.266 3.78189 11.2515 3.7962C10.1225 4.91357 8.99219 6.02909 7.86879 7.15144C7.74306 7.27774 7.61859 7.43265 7.56515 7.59752C7.41616 8.06289 7.30364 8.54008 7.16659 9.04775ZM12.991 4.5378C13.2953 4.2964 13.4682 3.98844 13.3726 3.58466C13.289 3.23191 13.0577 2.99922 12.6968 2.92892C12.2989 2.85177 11.9839 3.00358 11.757 3.31092C12.17 3.72154 12.5786 4.12718 12.991 4.5378Z" fill="#C7B277"/>
<path d="M4.90969 2.87554C3.95163 2.87554 2.99357 2.87429 2.03551 2.87678C1.89595 2.87678 1.7677 2.8351 1.73753 2.70134C1.71553 2.60428 1.74004 2.47301 1.79474 2.38964C1.83434 2.32929 1.9563 2.29943 2.04305 2.29694C2.38818 2.28699 2.73394 2.29258 3.07969 2.29258C4.59788 2.29258 6.11606 2.29258 7.63488 2.29258C7.68203 2.29258 7.72918 2.29134 7.77632 2.29321C7.98315 2.29943 8.10511 2.40955 8.10448 2.58935C8.10385 2.76728 7.98126 2.87492 7.76878 2.87492C6.81575 2.87616 5.86272 2.87554 4.90969 2.87554Z" fill="#C7B277"/>
<path d="M4.68969 4.5691C5.55911 4.5691 6.42853 4.56785 7.29795 4.57096C7.37904 4.57096 7.48654 4.57158 7.53558 4.61887C7.60662 4.6873 7.67954 4.80302 7.67011 4.8895C7.66068 4.97598 7.56072 5.06433 7.48089 5.12716C7.43562 5.16262 7.35076 5.15516 7.28349 5.15516C5.55534 5.1564 3.82655 5.1564 2.0984 5.15578C2.04622 5.15578 1.99278 5.15454 1.94249 5.14272C1.78847 5.10788 1.69921 4.98718 1.70926 4.83786C1.71869 4.69912 1.82305 4.59087 1.97141 4.57283C2.02296 4.56661 2.07577 4.5691 2.12857 4.5691C2.98165 4.5691 3.83598 4.5691 4.68969 4.5691Z" fill="#C7B277"/>
<path d="M3.80907 7.43212C3.23323 7.43212 2.65739 7.43399 2.08155 7.43026C2.00548 7.42964 1.9225 7.41782 1.85523 7.38546C1.74145 7.33009 1.67544 7.21873 1.71819 7.10239C1.7515 7.01217 1.83386 6.92881 1.91558 6.87095C1.96713 6.83486 2.0564 6.84544 2.12932 6.84544C3.24957 6.84419 4.36983 6.84482 5.48945 6.84482C5.50516 6.84482 5.52088 6.84482 5.5366 6.84482C5.77485 6.8473 5.92259 6.96054 5.92196 7.13972C5.92133 7.32014 5.77423 7.43212 5.53534 7.43212C4.96013 7.43275 4.38491 7.43212 3.80907 7.43212Z" fill="#C7B277"/>
<path d="M3.6204 9.708C3.08605 9.708 2.55233 9.708 2.01798 9.708C1.88345 9.708 1.76589 9.652 1.73635 9.52882C1.71434 9.4355 1.73257 9.30173 1.78978 9.23143C1.84384 9.16548 1.97083 9.13562 2.06827 9.13002C2.3191 9.11633 2.57056 9.12566 2.82202 9.12566C3.58646 9.12566 4.35089 9.12567 5.11596 9.12629C5.17882 9.12629 5.24232 9.12629 5.30393 9.135C5.46989 9.15864 5.56607 9.27498 5.5579 9.43487C5.55098 9.58046 5.4416 9.69617 5.28569 9.70426C5.11847 9.71297 4.95062 9.70862 4.7834 9.70862C4.39616 9.70924 4.00828 9.70862 3.62103 9.70862C3.6204 9.70862 3.6204 9.708 3.6204 9.708Z" fill="#C7B277"/>
</g>
<defs>
<clipPath id="clip0_1_311">
<rect width="14" height="12" fill="white"/>
</clipPath>
</defs>
</svg>
