<svg width="6" height="12" viewBox="0 0 6 12" fill="none" xmlns="http://www.w3.org/2000/svg">
<path d="M0.16022 0.175252C0.250592 0.0760545 0.369737 0.0148783 0.496897 0.00238101C0.624057 -0.0101163 0.751173 0.0268578 0.856099 0.106861L0.93245 0.175252L5.84069 5.57455C5.93086 5.67396 5.98648 5.80503 5.99784 5.94491C6.0092 6.08479 5.97559 6.22463 5.90286 6.34005L5.84069 6.42404L0.932448 11.8233C0.836258 11.9296 0.707367 11.9924 0.571175 11.9994C0.434984 12.0063 0.30137 11.9569 0.196666 11.8608C0.0919628 11.7647 0.0237638 11.629 0.00550945 11.4804C-0.0127449 11.3318 0.0202699 11.181 0.098047 11.0578L0.160218 10.9738L4.68343 5.9993L0.160219 1.02474C0.109432 0.969014 0.0691376 0.902812 0.0416444 0.829927C0.0141513 0.757042 -1.18704e-07 0.678907 -1.04907e-07 0.599997C-9.11096e-08 0.521086 0.0141513 0.442951 0.0416445 0.370066C0.0691377 0.297181 0.109432 0.230979 0.16022 0.175252Z" fill="#C7B277"/>
</svg>
