<svg width="23" height="29" viewBox="0 0 23 29" fill="none" xmlns="http://www.w3.org/2000/svg">
<g clip-path="url(#clip0_1_5552)">
<path d="M11.4541 28.2024C8.63299 28.2024 5.81128 28.203 2.99015 28.2024C1.67011 28.2024 0.447325 27.1471 0.33073 25.7858C0.254562 24.8973 0.290888 23.9878 0.374673 23.0982C0.474276 22.0417 1.07073 21.2611 1.89627 20.6455C2.6597 20.0763 3.52391 19.7209 4.37464 19.3288C5.67711 18.7282 6.96785 18.0994 8.26856 17.4959C8.6869 17.3013 8.92009 16.9821 9.01676 16.5333C9.10582 16.1165 9.08355 15.8015 8.69217 15.4829C7.78812 14.7468 7.22975 13.7331 6.81493 12.6368C6.76572 12.5067 6.71592 12.3742 6.68838 12.2381C6.60342 11.8135 6.42706 11.4978 6.01752 11.2798C5.64605 11.0822 5.49958 10.6443 5.37068 10.2426C5.20135 9.71432 5.16444 9.17403 5.41169 8.66686C5.51891 8.44641 5.69703 8.22535 5.89916 8.10248C6.07669 7.99466 6.12825 7.9019 6.11654 7.71216C6.09017 7.2833 6.05736 6.85324 6.06263 6.42377C6.07318 5.51907 6.23372 4.63785 6.53194 3.78555C6.78505 3.06335 7.30358 2.56462 7.89768 2.14781C8.73025 1.56354 9.63958 1.14914 10.6239 0.903988C11.3047 0.73413 11.9703 0.776293 12.6382 0.960005C13.762 1.2696 14.7815 1.79243 15.6773 2.55498C16.4003 3.17117 16.6816 4.0301 16.8485 4.93902C17.0249 5.89733 17.0401 6.86107 16.93 7.82902C16.9218 7.9025 16.9569 8.02959 17.0073 8.05429C17.5921 8.33859 17.7157 8.88491 17.7221 9.45652C17.728 10.0462 17.5628 10.6064 17.1761 11.0635C17.0454 11.2183 16.886 11.3744 16.7079 11.4539C16.4964 11.5478 16.4384 11.699 16.3833 11.8978C15.9662 13.4042 15.2537 14.7221 14.0374 15.7075C13.8997 15.819 13.861 15.9214 13.9061 16.0912C13.9389 16.2147 13.9196 16.3514 13.943 16.4785C14.0274 16.9375 14.253 17.2826 14.683 17.4826C16.0804 18.1319 17.4696 18.8005 18.8699 19.4432C19.9117 19.9215 20.9505 20.3949 21.7572 21.2635C22.2975 21.8453 22.5752 22.5543 22.6455 23.3373C22.7052 24.0041 22.7281 24.6787 22.7058 25.3479C22.656 26.8314 21.6172 28.2054 19.9204 28.2036C17.097 28.1999 14.2753 28.2024 11.4541 28.2024Z" fill="#C7B277"/>
</g>
<defs>
<clipPath id="clip0_1_5552">
<rect width="22.4237" height="27.4068" fill="white" transform="translate(0.288086 0.796875)"/>
</clipPath>
</defs>
</svg>
