<svg width="22" height="23" viewBox="0 0 22 23" fill="none" xmlns="http://www.w3.org/2000/svg">
<path d="M18.5836 18.0614L21.7573 21.2334C21.9053 21.3866 21.9872 21.5919 21.9853 21.8049C21.9834 22.0179 21.898 22.2217 21.7474 22.3724C21.5967 22.523 21.3929 22.6084 21.1799 22.6103C20.9669 22.6122 20.7616 22.5303 20.6084 22.3823L17.4348 19.2086C15.3609 20.9855 12.6794 21.89 9.95295 21.7324C7.22654 21.5748 4.66713 20.3673 2.81179 18.3634C0.956447 16.3594 -0.0506008 13.7147 0.00195855 10.9842C0.0545179 8.25375 1.1626 5.64977 3.09369 3.71869C5.02477 1.7876 7.62875 0.679518 10.3592 0.626959C13.0897 0.574399 15.7344 1.58145 17.7384 3.43679C19.7423 5.29213 20.9498 7.85154 21.1074 10.578C21.265 13.3044 20.3605 15.9859 18.5836 18.0598V18.0614ZM10.5626 20.1251C12.933 20.1251 15.2063 19.1835 16.8824 17.5074C18.5585 15.8313 19.5001 13.558 19.5001 11.1876C19.5001 8.81726 18.5585 6.54397 16.8824 4.86786C15.2063 3.19176 12.933 2.25013 10.5626 2.25013C8.19226 2.25013 5.91897 3.19176 4.24286 4.86786C2.56676 6.54397 1.62513 8.81726 1.62513 11.1876C1.62513 13.558 2.56676 15.8313 4.24286 17.5074C5.91897 19.1835 8.19226 20.1251 10.5626 20.1251Z" fill="#A5A5A5"/>
</svg>
